# xmcd CD database file
#
# Track frame offsets:
#	150
#	55759
#	118304
#	163442
#
# Disc length: 3029 seconds
#
# Revision: 0
# Processed by: cddbd v1.5.1PL2 Copyright (c) Steve Scherf et al.
# Submitted via: CDex 1.51
#
DISCID=370bd304
DTITLE=Llewellyn - Journey To Our Dreams
DYEAR=2005
DGENRE=New Age
TTITLE0=Breathing
TTITLE1=Floating
TTITLE2=Journey
TTITLE3=Dream
EXTD=YEAR: 2005
EXTT0=
EXTT1=
EXTT2=
EXTT3=
PLAYORDER=
